<?xml version="1.0" encoding="UTF-8" standalone="no"?>
<!-- Created with Inkscape (http://www.inkscape.org/) -->

<svg
   version="1.1"
   id="svg1"
   width="241.33333"
   height="341.33334"
   viewBox="0 0 241.33333 341.33334"
   sodipodi:docname="ollama.svg"
   inkscape:version="1.4.2 (ebf0e940d0, 2025-05-08)"
   xmlns:inkscape="http://www.inkscape.org/namespaces/inkscape"
   xmlns:sodipodi="http://sodipodi.sourceforge.net/DTD/sodipodi-0.dtd"
   xmlns="http://www.w3.org/2000/svg"
   xmlns:svg="http://www.w3.org/2000/svg">
  <sodipodi:namedview
     id="namedview1"
     pagecolor="#ffffff"
     bordercolor="#111111"
     borderopacity="1"
     inkscape:showpageshadow="0"
     inkscape:pageopacity="0"
     inkscape:pagecheckerboard="1"
     inkscape:deskcolor="#d1d1d1"
     inkscape:zoom="4.2426405"
     inkscape:cx="156.15275"
     inkscape:cy="255.73696"
     inkscape:window-width="2560"
     inkscape:window-height="1403"
     inkscape:window-x="0"
     inkscape:window-y="0"
     inkscape:window-maximized="1"
     inkscape:current-layer="svg1" />
  <defs
     id="defs1" />
  <rect
     style="fill:#ffffff;fill-opacity:1;stroke-width:2;stroke-linejoin:round;paint-order:stroke markers fill"
     id="rect3"
     width="34.659573"
     height="75.397491"
     x="39.822346"
     y="10.398143"
     ry="15.55635" />
  <rect
     style="fill:#ffffff;fill-opacity:1;stroke-width:2;stroke-linejoin:round;paint-order:stroke markers fill"
     id="rect4"
     width="35.710289"
     height="79.506378"
     x="170.52919"
     y="8.4105663"
     ry="16.263456" />
  <rect
     style="fill:#ffffff;fill-opacity:1;stroke-width:2;stroke-linejoin:round;paint-order:stroke markers fill"
     id="rect5"
     width="206.75215"
     height="238.36838"
     x="20.363718"
     y="102.72928"
     ry="0" />
  <rect
     style="fill:#ffffff;fill-opacity:1;stroke-width:2;stroke-linejoin:round;paint-order:stroke markers fill"
     id="rect6"
     width="167.1129"
     height="51.147385"
     x="36.76955"
     y="55.625732" />
  <path
     style="display:inline;fill:#000000;stroke-width:1.03931"
     d="m 7.8990207,337.37273 c -0.85167,-2.36877 -1.200311,-10.90688 -0.86744,-21.24332 0.472196,-14.66282 1.111623,-18.7576 4.2181283,-27.01219 l 3.661562,-9.72949 -3.506602,-7.74183 C 6.0841617,259.89937 4.0869517,249.82538 4.0912287,234.75669 c 0.0041,-14.61626 2.091178,-26.72558 6.5369743,-37.92869 l 2.75358,-6.93883 -3.179361,-6.01069 C -4.0702003,156.89564 0.32880975,121.84937 21.002427,97.836416 L 28.976911,88.57385 28.391762,68.410696 C 27.7333,45.721341 29.575799,32.75412 35.416092,18.974536 41.123218,5.5091416 47.502926,0 57.389028,0 c 15.08897,0 23.216468,12.980669 29.931,47.803668 l 0.747521,3.876802 5.744193,-2.744633 c 19.331948,-9.236999 38.836978,-9.193112 55.747158,0.125429 2.98203,1.643282 5.70389,2.683161 6.04857,2.310848 0.34468,-0.372313 1.48353,-5.116263 2.53077,-10.542102 C 163.35435,13.804924 172.88249,0 186.31908,0 c 10.30484,0 16.59472,5.333679 22.37621,18.974536 5.8403,13.779584 7.6828,26.746805 7.02434,49.43616 l -0.58515,20.163154 7.98215,9.271424 c 4.39018,5.099286 9.36917,12.552446 11.06443,16.562586 9.62041,22.75711 9.52962,49.08379 -0.2361,68.46509 l -3.35631,6.66102 2.82406,7.11644 c 4.51552,11.37881 6.60328,23.41927 6.60745,38.10628 0.004,15.06869 -1.99294,25.14268 -7.31344,36.88921 l -3.5066,7.74183 3.66156,9.72949 c 3.1065,8.25459 3.74593,12.34937 4.21813,27.01219 0.33287,10.33644 -0.0158,18.87455 -0.86744,21.24332 -1.35491,3.76844 -1.85348,3.96061 -10.27501,3.96061 h -8.851 l 0.80644,-4.68072 c 3.30926,-19.20752 2.0129,-32.4234 -4.508,-45.95737 -4.60278,-9.55296 -5.03021,-15.23333 -1.51237,-20.09876 12.93477,-17.88976 14.04401,-45.15936 2.8456,-69.95606 -4.32222,-9.57071 -5.09029,-12.46162 -4.07627,-15.34251 0.68719,-1.95236 1.89786,-3.98263 2.69038,-4.51169 2.72642,-1.82011 8.23937,-15.46226 9.5863,-23.72192 2.61963,-16.06415 -3.22586,-35.19148 -14.44698,-47.27267 -9.17028,-9.873166 -17.32878,-13.677423 -30.12362,-14.046452 -5.70599,-0.164575 -10.64323,-0.589491 -10.97166,-0.94424 -0.32843,-0.35476 -3.00195,-4.663996 -5.94115,-9.576096 -12.58088,-21.02555 -37.98262,-29.069664 -58.9462,-18.666818 -9.497235,4.712852 -18.300955,13.387471 -22.245877,21.91966 -1.672551,3.617442 -3.448909,6.636319 -3.947464,6.708615 -0.498554,0.07226 -5.406461,0.234321 -10.906461,0.360052 -12.977655,0.296679 -22.51217,5.131829 -31.825983,16.139609 -9.336173,11.03421 -12.715092,20.93021 -12.762222,37.37733 -0.03017,10.53019 0.544949,14.36133 3.065491,20.42052 1.706449,4.10216 4.316011,8.63887 5.799025,10.08157 5.488763,5.33954 5.44918,8.40664 -0.271984,21.07504 -11.198409,24.7967 -10.089163,52.0663 2.845605,69.95606 3.517834,4.86543 3.090404,10.5458 -1.512369,20.09876 -6.520901,13.53397 -7.81726,26.74985 -4.508005,45.95737 l 0.806441,4.68072 h -8.851 c -8.4215343,0 -8.9200963,-0.19217 -10.2750063,-3.96061 z M 62.342116,76.36629 c 4.350726,-0.02657 5.963118,-0.727374 7.140299,-3.103292 1.829948,-3.69341 0.657467,-20.917954 -2.291031,-33.656806 -2.065298,-8.923026 -7.66818,-20.883259 -9.782956,-20.883259 -6.221798,0 -13.707311,34.796027 -11.393983,52.964358 l 0.91316,7.171748 4.897378,-1.229199 c 2.693558,-0.676057 7.426268,-1.244647 10.517133,-1.26355 z M 198.11468,55.787768 c -1.15724,-17.71938 -7.11343,-37.064835 -11.41172,-37.064835 -2.11478,0 -7.71766,11.960233 -9.78296,20.883259 -2.94849,12.738852 -4.12098,29.963396 -2.29103,33.656806 1.19854,2.419016 2.85183,3.105021 7.80697,3.239329 3.45753,0.09376 8.08642,0.593445 10.28642,1.110489 3.72466,0.87538 4.07629,0.591025 5.10836,-4.131019 0.60959,-2.789104 0.73738,-10.751417 0.28396,-17.694029 z M 100.48793,222.66958 C 71.195354,212.42013 64.059066,178.54773 86.583602,156.67269 c 10.196674,-9.90265 19.067118,-13.20473 35.472088,-13.20473 16.40497,0 25.27542,3.30208 35.4721,13.20473 20.96935,20.3647 16.46147,51.43969 -9.30889,64.17054 -5.14148,2.53995 -9.14721,3.10519 -24.16321,3.40959 -12.3379,0.25013 -19.7514,-0.24791 -23.56776,-1.58324 z m 39.70213,-12.59561 c 19.35718,-7.00061 24.48678,-28.08466 10.35796,-42.57402 -7.58782,-7.78145 -16.27111,-11.19245 -28.49233,-11.19245 -12.22121,0 -20.9045,3.411 -28.492318,11.19245 -13.932402,14.28792 -9.061575,35.34408 9.825658,42.47543 5.44292,2.05512 31.20029,2.12412 36.80103,0.0986 z M 117.4034,196.60943 c -0.96548,-1.25659 -1.28743,-3.6826 -0.77907,-5.87046 0.68,-2.92656 0.13829,-4.3475 -2.51777,-6.60425 -1.86131,-1.58148 -3.3842,-4.10178 -3.3842,-5.60067 0,-3.75122 4.57443,-6.2471 7.9127,-4.31728 1.76406,1.01979 3.71185,1.02602 6.16218,0.0198 2.54538,-1.04534 4.11497,-0.99433 5.42064,0.17614 2.72134,2.43958 2.24419,8.1597 -0.82885,9.93619 -1.95922,1.1326 -2.66667,3.01557 -2.66667,7.09771 0,3.73788 -0.69019,5.84222 -2.10905,6.43034 -3.36589,1.39515 -5.44497,1.02967 -7.20991,-1.26744 z M 52.30711,168.45024 c -4.782579,-4.81286 -3.53254,-16.30458 2.299708,-21.14141 3.78217,-3.13666 11.322225,-2.22378 14.816458,1.79384 10.002812,11.50111 -6.44177,30.08953 -17.116166,19.34757 z m 123.0647,-1.40353 c -7.57537,-8.54089 -3.16687,-21.63825 7.24963,-21.53817 7.68912,0.0739 12.10092,5.51558 12.10092,14.92577 0,10.91584 -11.92061,14.9893 -19.35055,6.6124 z"
     id="path1" />
</svg>
