<?xml version="1.0" encoding="UTF-8" standalone="no"?>
<!-- Created with Inkscape (http://www.inkscape.org/) -->

<svg
   width="512"
   height="512"
   viewBox="0 0 512 512"
   version="1.1"
   id="svg1"
   xml:space="preserve"
   xmlns="http://www.w3.org/2000/svg"
   xmlns:svg="http://www.w3.org/2000/svg"><defs
     id="defs1" /><g
     id="layer1"><path
       style="fill:#010101;stroke:none"
       d="m 31,125 v 195 c -7.165529,7.9e-4 -10.904411,-0.0653 -11,8 H 10 v -8 H 0 v 29 h 10 c 0.229118,-7.03571 3.527114,-7.97717 10,-8 v 8 h 35 c -2.757133,21.81628 12.923553,46.59619 38,36.12347 10.05958,-4.20123 14.15056,-17.04803 25,-17.12271 3.8859,-0.0268 10.19064,-1.15283 13.60957,1.02701 7.25974,4.62872 8.94486,13.06192 18.39043,16.42362 23.64635,8.4158 42.32892,-14.06849 37,-36.45139 h 138 c -5.33673,22.41553 13.2616,44.89993 37,36.45139 9.44556,-3.3617 11.13071,-11.7949 18.39044,-16.42362 3.23602,-2.06323 8.94159,-1.03531 12.60956,-1.02777 11.91061,0.0245 14.4343,12.28577 25,16.76697 25.24857,10.70855 41.86276,-13.11475 39,-35.76697 h 34 c 0.22906,-7.03571 3.52716,-7.97717 10,-8 v 8 h 11 v -29 h -10 v 8 h -11 v -8 H 481 V 125 H 31 m 94,41 V 298 H 99 V 166 h 26 m 58,0 V 298 H 157 V 166 h 26 m 57,0 V 298 H 214 V 166 h 26 m 58,0 V 298 H 272 V 166 h 26 m 57,0 V 298 H 329 V 166 h 26 m 58,0 V 298 H 387 V 166 Z"
       id="path1" /></g></svg>
