<?xml version="1.0" encoding="UTF-8" standalone="no" ?>
<svg
    width="512"
    height="512"
    viewBox="0 0 100 100"
    fill="none"
    version="1.1"
    id="svg2"
    sodipodi:docname="github-logo.svg"
    inkscape:version="1.4.2 (ebf0e940d0, 2025-05-08)"
    xmlns:inkscape="http://www.inkscape.org/namespaces/inkscape"
    xmlns:sodipodi="http://sodipodi.sourceforge.net/DTD/sodipodi-0.dtd"
    xmlns="http://www.w3.org/2000/svg"
    xmlns:svg="http://www.w3.org/2000/svg"
>
  <defs id="defs2" />
  <sodipodi:namedview
        id="namedview2"
        pagecolor="#ffffff"
        bordercolor="#111111"
        borderopacity="1"
        inkscape:showpageshadow="0"
        inkscape:pageopacity="0"
        inkscape:pagecheckerboard="1"
        inkscape:deskcolor="#d1d1d1"
        inkscape:zoom="6.8872201"
        inkscape:cx="58.441577"
        inkscape:cy="67.516356"
        inkscape:window-width="2560"
        inkscape:window-height="1403"
        inkscape:window-x="0"
        inkscape:window-y="0"
        inkscape:window-maximized="1"
        inkscape:current-layer="svg2"
    />
  <path
        d="M 50.000222,0 C 22.389434,0 0,22.95209 0,51.265721 0,73.916565 14.326538,93.13303 34.193329,99.91197 c 2.498699,0.47441 3.416298,-1.112154 3.416298,-2.466384 0,-1.222271 -0.0467,-5.260968 -0.0678,-9.544612 -13.910494,3.101153 -16.845692,-6.048714 -16.845692,-6.048714 -2.274399,-5.925677 -5.551598,-7.501066 -5.551598,-7.501066 -4.536298,-3.181948 0.342,-3.116738 0.342,-3.116738 5.020998,0.361832 7.664797,5.283116 7.664797,5.283116 4.459398,7.837573 11.696795,5.571432 14.550093,4.261907 0.4486,-3.313804 1.7446,-5.575022 3.174399,-6.855224 -11.105495,-1.29671 -22.78039,-5.692522 -22.78039,-25.335926 0,-5.596758 1.953299,-10.170359 5.151997,-13.76038 -0.519199,-1.29148 -2.230498,-6.50549 0.4843,-13.567005 0,0 4.198599,-1.377915 13.753595,5.255022 3.988098,-1.136249 8.265596,-1.705502 12.514894,-1.72488 4.249198,0.01937 8.529796,0.588631 12.525794,1.72488 9.543596,-6.632937 13.736395,-5.255022 13.736395,-5.255022 2.721398,7.061515 1.009299,12.275525 0.4901,13.567005 3.205798,3.590021 5.145697,8.163212 5.145697,13.76038 0,19.690055 -11.696795,24.025989 -22.83049,25.294913 1.7932,1.590974 3.391199,4.710992 3.391199,9.493655 0,6.859221 -0.058,12.380004 -0.058,14.068689 0,1.364278 0.9,2.962944 3.434798,2.459515 C 85.691406,93.118573 100,73.908978 100,51.265721 100,22.95209 77.61371,0 50.000222,0 Z"
        fill="#161614"
        id="path1"
        style="stroke-width:1.01258;fill:#000000;fill-opacity:1"
    />
  <path
        style="fill:none;fill-opacity:0;stroke:none;stroke-width:0.513347;stroke-linejoin:round;paint-order:stroke markers fill"
        d="M 34.169775,98.359958 C 33.332915,98.125597 31.247611,97.314786 29.620123,96.590959 23.513954,93.87523 17.721271,89.690247 13.164267,84.702259 6.3867397,77.283737 1.9924325,68.022021 0.57209796,58.162218 0.19130197,55.518774 0.10780664,54.239821 0.10626176,51.026694 0.10470774,47.7946 0.18561933,46.555909 0.57569605,43.840036 1.9379416,34.35553 6.0657727,25.377351 12.364406,18.19918 20.066948,9.4210556 30.324369,3.6698352 41.683778,1.7601372 44.839923,1.229539 46.055751,1.1366917 49.897331,1.1329053 c 3.773044,-0.00372 4.710658,0.059421 7.75154,0.5219928 21.575297,3.2819868 38.666722,20.5410329 41.775433,42.1851379 0.382364,2.662179 0.467629,3.961177 0.468355,7.135323 7.24e-4,3.170875 -0.09372,4.639547 -0.458868,7.135524 -1.463017,10.000524 -5.795631,19.1456 -12.598058,26.591376 -5.438591,5.952954 -12.160621,10.449246 -19.821208,13.258191 -1.50694,0.552556 -2.297842,0.63185 -3.123704,0.313173 -0.492141,-0.189903 -1.025156,-0.697952 -1.243695,-1.185439 -0.08876,-0.197998 -0.137159,-2.564978 -0.17978,-8.792496 -0.0572,-8.356955 -0.06278,-8.541362 -0.289368,-9.54666 -0.463862,-2.058055 -1.319726,-3.857801 -2.390218,-5.02625 l -0.581849,-0.635093 1.043861,-0.129489 C 71.305165,71.586797 77.796246,66.980795 80.522485,58.572895 81.894354,54.341958 82.333545,48.336168 81.563513,44.33717 80.96923,41.25089 79.459716,38.070672 77.465581,35.703724 l -0.626742,-0.743915 0.255583,-0.809063 c 0.526093,-1.665382 0.626423,-2.45871 0.624907,-4.9413 -0.0012,-1.994926 -0.03346,-2.469208 -0.236321,-3.47666 -0.252716,-1.255038 -0.856669,-3.348175 -1.104189,-3.826825 L 76.22676,21.61191 h -1.084932 c -2.963542,0 -6.614324,1.391758 -11.230124,4.281172 -1.039825,0.650913 -1.45015,0.85568 -1.64271,0.819768 -0.141171,-0.02633 -0.764887,-0.168311 -1.386037,-0.31552 -4.093667,-0.970179 -8.905386,-1.414698 -12.97869,-1.199004 -3.154776,0.167056 -5.849891,0.522444 -8.325212,1.097795 -0.592915,0.137814 -1.309034,0.301973 -1.591375,0.364797 l -0.513347,0.114226 -1.034942,-0.67287 C 31.943715,23.179401 27.722382,21.557041 24.813532,21.634176 l -1.096194,0.02907 -0.22579,0.569577 c -0.292291,0.73734 -0.696212,2.134987 -0.89464,3.095643 -0.598739,2.898676 -0.457176,6.538442 0.348459,8.959376 l 0.218973,0.658014 -0.622379,0.741249 c -1.996498,2.377814 -3.511831,5.567047 -4.102382,8.634044 -0.507964,2.638091 -0.509895,6.263665 -0.0052,9.68296 1.147537,7.773866 4.673013,13.010196 10.812266,16.059279 2.698115,1.340029 6.007533,2.302795 9.71635,2.826651 0.649384,0.09172 1.312847,0.192966 1.474362,0.224986 l 0.293665,0.05822 -0.458924,0.477035 c -1.149617,1.194986 -2.097075,3.211605 -2.451951,5.218856 -0.06803,0.384812 -0.165508,0.75466 -0.216611,0.821884 -0.0511,0.06723 -0.401397,0.23753 -0.778432,0.378456 -3.93275,1.469956 -7.355575,1.248918 -10.194952,-0.658364 -1.099904,-0.738835 -2.207511,-1.950629 -3.296566,-3.606657 -0.544575,-0.828088 -1.299333,-1.833379 -1.677242,-2.233982 -1.823341,-1.932838 -4.165807,-3.094908 -6.258212,-3.104629 -1.446869,-0.0067 -2.205158,0.339604 -2.205158,1.00714 0,0.296291 0.100977,0.465376 0.574196,0.961497 0.315808,0.331091 1.023454,0.902984 1.572548,1.270873 2.120604,1.42079 3.829829,3.6724 5.14033,6.771501 0.601879,1.423335 1.181461,2.350329 2.049996,3.278794 1.633693,1.746423 3.964408,2.93157 6.730692,3.422493 1.502902,0.266714 4.457519,0.243918 6.365503,-0.04911 0.790555,-0.121414 1.541325,-0.248932 1.668378,-0.283373 l 0.231006,-0.06262 v 4.851192 c 0,3.384655 -0.03602,4.971419 -0.119154,5.248892 -0.360973,1.20482 -1.824156,1.872433 -3.236738,1.476841 z"
        id="path3"
    />
</svg>
