<?xml version="1.0" encoding="UTF-8" standalone="no" ?>
<!-- Created with Inkscape (http://www.inkscape.org/) -->
<svg
    width="512"
    height="512"
    viewBox="0 0 512 512"
    version="1.1"
    id="svg1"
    xml:space="preserve"
    xmlns="http://www.w3.org/2000/svg"
    xmlns:svg="http://www.w3.org/2000/svg"
><defs id="defs1" /><g id="layer1"><path
            style="fill:#000000"
            d="m 255.34276,511.60638 c -192.826065,-0.037 -222.080625,-0.1679 -226.024775,-1.0136 -2.491798,-0.5343 -6.632491,-2.0298 -9.201541,-3.3233 -3.137693,-1.5799 -6.205148,-3.8864 -9.344564,-7.0264 -2.885167,-2.8857 -5.465847,-6.2446 -6.744013,-8.7777 -1.138747,-2.2568 -2.510869,-5.7942 -3.049159,-7.8608 C 0.121189,480.31238 0,452.08828 0,255.67137 0,59.25447 0.121189,31.03041 0.978708,27.73817 1.516998,25.67154 2.88912,22.13417 4.027867,19.87736 5.306392,17.34353 7.885902,13.98648 10.77188,11.1005 13.59439,8.27799 17.020958,5.63197 19.423323,4.4198 21.611156,3.31587 25.160322,1.86981 27.310358,1.20633 31.070306,0.04604 39.78664,0 255.6714,0 c 215.88475,0 224.60108,0.046 228.36103,1.20633 2.15004,0.66348 5.62305,2.0715 7.7178,3.12892 2.09475,1.05743 5.84588,3.84443 8.33585,6.19334 3.00881,2.83836 5.31882,5.77717 6.88742,8.76223 1.29811,2.47031 2.81225,6.22699 3.36475,8.34817 0.89172,3.42354 1.00454,29.03461 1.00454,228.03238 0,198.99781 -0.11282,224.60881 -1.00454,228.03241 -0.5525,2.1212 -2.06664,5.8778 -3.36475,8.3481 -1.58193,3.0105 -3.88241,5.9275 -6.97646,8.8463 -2.9863,2.8171 -6.27224,5.1411 -9.30623,6.582 -2.57948,1.225 -6.75183,2.664 -9.27189,3.1978 -3.99114,0.8454 -33.14045,0.9651 -226.07616,0.9284 z M 113.98394,435.92831 151.4968,435.75866 V 313.83825 191.91784 l -37.95635,-0.16965 -37.956365,-0.16965 v 121.8162 c 0,66.99892 0.19958,122.01579 0.4435,122.25971 0.24393,0.24393 17.32429,0.36716 37.956355,0.27386 z m 123.34316,0.15898 h 37.30312 l 0.29044,-67.86136 c 0.20132,-47.03836 0.52692,-69.47477 1.06112,-73.11939 0.42388,-2.89191 1.50141,-8.02897 2.39452,-11.41569 0.8931,-3.38671 2.71854,-8.26681 4.05653,-10.84467 1.55363,-2.99332 4.10491,-6.37144 7.06028,-9.34842 3.23264,-3.25628 5.9669,-5.29811 9.07067,-6.77359 2.44371,-1.16169 6.5844,-2.56211 9.20155,-3.11205 2.61714,-0.54993 8.01184,-1.02197 11.98822,-1.04897 3.97638,-0.027 9.00436,0.3205 11.1733,0.77223 2.16893,0.45173 5.86598,1.73007 8.21566,2.84075 2.64844,1.2519 5.65043,3.41324 7.89856,5.68672 1.99453,2.01702 4.55731,5.4419 5.69508,7.61083 1.13777,2.16894 2.68492,5.86598 3.43811,8.21566 0.7532,2.34968 1.85502,7.0819 2.44851,10.51605 0.94236,5.45288 1.11406,15.21575 1.35532,77.0629 l 0.27626,70.819 h 37.75217 37.75217 v -74.50276 c 0,-43.92815 -0.27143,-77.98092 -0.66141,-82.97818 -0.36378,-4.66148 -1.13348,-11.8767 -1.71044,-16.03382 -0.57697,-4.15713 -2.03247,-11.40334 -3.23444,-16.1027 -1.20198,-4.69936 -3.24953,-11.16739 -4.55012,-14.3734 -1.30058,-3.20601 -3.54678,-7.85312 -4.99156,-10.32692 -1.44478,-2.4738 -4.34409,-6.65327 -6.44291,-9.28771 -2.09883,-2.63444 -5.41965,-6.14109 -7.3796,-7.79255 -1.95994,-1.65146 -4.98965,-3.97244 -6.73267,-5.15774 -1.74303,-1.1853 -5.88372,-3.43892 -9.20154,-5.00805 -3.31783,-1.56913 -8.5464,-3.57819 -11.61906,-4.46458 -3.07266,-0.88639 -8.54429,-2.14359 -12.15918,-2.79377 -4.88869,-0.87929 -10.1086,-1.19245 -20.37484,-1.22235 -12.15525,-0.0354 -14.61948,0.14274 -20.65009,1.49277 -3.76627,0.84313 -8.94214,2.28516 -11.50192,3.20452 -2.55979,0.91935 -6.7245,2.71049 -9.25493,3.98031 -2.53042,1.26981 -6.819,3.78812 -9.53016,5.59623 -2.71117,1.80812 -7.73916,6.15333 -11.1733,9.65602 -3.43415,3.50269 -7.42696,8.33081 -8.87292,10.72915 -1.44596,2.39834 -2.85083,4.37113 -3.12195,4.38398 -0.27112,0.0129 -0.49294,-7.51861 -0.49294,-16.73658 v -16.75995 h -36.47753 -36.47755 v 121.81087 c 0,66.99598 0.19718,122.00805 0.43817,122.24904 0.24099,0.24099 17.22458,0.43817 37.7413,0.43817 z M 113.43531,158.03313 c 3.90324,0.0236 7.73132,-0.41314 11.04216,-1.25992 2.78724,-0.71285 7.19707,-2.40913 9.79961,-3.7695 3.1812,-1.66284 6.47262,-4.19971 10.04359,-7.74113 2.92143,-2.89724 6.22701,-6.89442 7.34575,-8.88261 1.11873,-1.98819 2.84938,-5.981 3.84588,-8.87291 1.5901,-4.61456 1.81003,-6.22322 1.79716,-13.14506 -0.0125,-6.71462 -0.27116,-8.66865 -1.74017,-13.14506 -0.94903,-2.89191 -2.78798,-7.0326 -4.08656,-9.20154 -1.29857,-2.16893 -4.19275,-5.80749 -6.43151,-8.08567 -2.23876,-2.27819 -5.63946,-5.18847 -7.55712,-6.46729 -1.91766,-1.27883 -5.81502,-3.17489 -8.66081,-4.21347 -2.84578,-1.03859 -7.4139,-2.1664 -10.15135,-2.50626 -3.12884,-0.38845 -6.85213,-0.38514 -10.02598,0.009 -2.77684,0.34475 -6.84359,1.22803 -9.037225,1.96286 -2.19364,0.73483 -5.46725,2.18644 -7.2747,3.22581 -1.80744,1.03937 -4.79877,3.15901 -6.6474,4.71031 -1.84863,1.55129 -4.29047,3.8968 -5.42633,5.21223 -1.13585,1.31544 -3.10905,4.12519 -4.38488,6.24391 -1.27583,2.11871 -3.09864,6.21831 -4.05068,9.11022 -1.4431,4.38353 -1.73983,6.51511 -1.78415,12.81643 -0.0435,6.1861 0.22618,8.4534 1.48539,12.48781 0.8462,2.71117 2.47052,6.70398 3.6096,8.87291 1.25792,2.39523 4.26653,6.15222 7.66299,9.56914 3.98097,4.00494 6.95819,6.33134 10.33437,8.07528 2.60834,1.34731 6.896905,3.01413 9.530165,3.70404 2.92992,0.76764 7.10605,1.26843 10.76219,1.29058 z"
            id="path1"
        /></g></svg>
