<?xml version="1.0" encoding="UTF-8" standalone="no" ?>
<svg
    width="512"
    height="512"
    viewBox="0 0 24 24"
    version="1.1"
    id="svg2"
    sodipodi:docname="mail-send-line.svg"
    inkscape:version="1.4.2 (ebf0e940d0, 2025-05-08)"
    xmlns:inkscape="http://www.inkscape.org/namespaces/inkscape"
    xmlns:sodipodi="http://sodipodi.sourceforge.net/DTD/sodipodi-0.dtd"
    xmlns="http://www.w3.org/2000/svg"
    xmlns:svg="http://www.w3.org/2000/svg"
>
  <defs id="defs2" />
  <sodipodi:namedview
        id="namedview2"
        pagecolor="#ffffff"
        bordercolor="#111111"
        borderopacity="1"
        inkscape:showpageshadow="0"
        inkscape:pageopacity="0"
        inkscape:pagecheckerboard="1"
        inkscape:deskcolor="#d1d1d1"
        inkscape:zoom="40.583333"
        inkscape:cx="12.01232"
        inkscape:cy="12"
        inkscape:window-width="2560"
        inkscape:window-height="1403"
        inkscape:window-x="0"
        inkscape:window-y="0"
        inkscape:window-maximized="1"
        inkscape:current-layer="svg2"
    />
  <g id="g2" transform="matrix(1.0909091,0,0,1.0909091,0,-1.0909092)">
    <path fill="none" d="M 0,0 H 24 V 24 H 0 Z" id="path1" />
    <path
            d="M 22,20.007 A 1,1 0 0 1 21.008,21 H 2.992 A 0.993,0.993 0 0 1 2,20.007 V 19 H 20 V 7.3 L 12,14.5 2,5.5 V 4 A 1,1 0 0 1 3,3 h 18 a 1,1 0 0 1 1,1 z M 4.434,5 12,11.81 19.566,5 Z M 0,15 h 8 v 2 H 0 Z m 0,-5 h 5 v 2 H 0 Z"
            id="path2"
        />
  </g>
</svg>
