<?xml version="1.0"?><svg enable-background="new 0 0 64 64" height="64px" id="Layer_1" version="1.1" viewBox="0 0 64 64" width="64px" xml:space="preserve" xmlns="http://www.w3.org/2000/svg" xmlns:xlink="http://www.w3.org/1999/xlink"><circle cx="32" cy="32" fill="#4F5D73" r="32"/><path d="M26,52.735c0,1.398-1.119,2.531-2.5,2.531l0,0c-1.381,0-2.5-1.133-2.5-2.531V19.265  c0-1.398,1.119-2.531,2.5-2.531l0,0c1.381,0,2.5,1.133,2.5,2.531V52.735z" fill="#231F20" opacity="0.2"/><path d="M43,52.735c0,1.398-1.119,2.531-2.5,2.531l0,0c-1.381,0-2.5-1.133-2.5-2.531V19.265  c0-1.398,1.119-2.531,2.5-2.531l0,0c1.381,0,2.5,1.133,2.5,2.531V52.735z" fill="#231F20" opacity="0.2"/><path d="M26,51c0,1.398-1.119,2.531-2.5,2.531l0,0c-1.381,0-2.5-1.133-2.5-2.531V17.531C21,16.133,22.119,14,23.5,14  l0,0c1.381,0,2.5,2.133,2.5,3.531V51z" fill="#E0E0D1"/><path d="M43,51c0,1.398-1.119,2.531-2.5,2.531l0,0c-1.381,0-2.5-1.133-2.5-2.531V17.531C38,16.133,39.119,14,40.5,14  l0,0c1.381,0,2.5,2.133,2.5,3.531V51z" fill="#E0E0D1"/><path d="M38,43.031C38,46.328,35.314,49,32,49l0,0c-3.314,0-6-2.672-6-5.969V16c0-3.297,2.686-9,6-9l0,0  c3.314,0,6,5.703,6,9V43.031z" fill="#E0995E"/><path d="M34.563,51c0,1.105-0.895,2-2,2H21c-1.105,0-3-0.895-3-2v-3c0-1.105,1.823-2.216,3-3  c6-4,6-12,6-12c1.105,0,7.563,4.895,7.563,6V51z" fill="#231F20" opacity="0.2"/><path d="M29.437,51c0,1.105,0.895,2,2,2H43c1.105,0,3-0.895,3-2v-3c0-1.105-1.823-2.216-3-3  c-6-4-6-12-6-12c-1.105,0-7.563,4.895-7.563,6L29.437,51z" fill="#231F20" opacity="0.2"/><path d="M37,54.469C37,55.867,34.761,57,32,57l0,0c-2.761,0-5-1.133-5-2.531V24c0-1.398,2.239-7,5-7  l0,0c2.761,0,5,5.602,5,7V54.469z" fill="#231F20" opacity="0.2"/><path d="M34.563,47c0,1.105-0.895,2-2,2H21c-1.105,0-3-0.895-3-2v-3c0-1.105,1.823-2.216,3-3  c6-4,6-12,6-12c1.105,0,7.563,4.895,7.563,6V47z" fill="#231F20" opacity="0.2"/><path d="M29.437,47c0,1.105,0.895,2,2,2H43c1.105,0,3-0.895,3-2v-3c0-1.105-1.823-2.216-3-3  c-6-4-6-12-6-12c-1.105,0-7.563,4.895-7.563,6L29.437,47z" fill="#231F20" opacity="0.2"/><g opacity="0.2"><path d="M26,51V17.531c0-0.825-0.396-2.069-1-2.531v38.013C25.604,52.551,26,51.825,26,51z" fill="#231F20"/><path d="M38,17.531V51c0,0.825,0.396,1.551,1,2.013V15C38.396,15.462,38,16.706,38,17.531z" fill="#231F20"/></g><path d="M34.563,49c0,1.105-0.895,2-2,2H21c-1.105,0-3-0.895-3-2v-3c0-1.105,1.823-2.216,3-3c6-4,6-12,6-12  c1.105,0,7.563,4.895,7.563,6V49z" fill="#E0E0D1"/><path d="M29.437,49c0,1.105,0.895,2,2,2H43c1.105,0,3-0.895,3-2v-3c0-1.105-1.823-2.216-3-3c-6-4-6-12-6-12  c-1.105,0-7.563,4.895-7.563,6L29.437,49z" fill="#E0E0D1"/><path d="M37,52.469C37,53.867,34.761,55,32,55l0,0c-2.761,0-5-1.133-5-2.531V22c0-1.398,2.239-7,5-7l0,0  c2.761,0,5,5.602,5,7V52.469z" fill="#FFFFFF"/></svg>