<?xml version="1.0" encoding="UTF-8" standalone="no"?>
<svg
   version="1.1"
   id="Capa_1"
   viewBox="0 0 24 24"
   style="enable-background:new 0 0 24 24;"
   xml:space="preserve"
   width="512"
   height="512"
   sodipodi:docname="walmart_icon.svg"
   inkscape:version="1.4.2 (ebf0e940d0, 2025-05-08)"
   xmlns:inkscape="http://www.inkscape.org/namespaces/inkscape"
   xmlns:sodipodi="http://sodipodi.sourceforge.net/DTD/sodipodi-0.dtd"
   xmlns="http://www.w3.org/2000/svg"
   xmlns:svg="http://www.w3.org/2000/svg"><defs
     id="defs1" /><sodipodi:namedview
     id="namedview1"
     pagecolor="#ffffff"
     bordercolor="#111111"
     borderopacity="1"
     inkscape:showpageshadow="0"
     inkscape:pageopacity="0"
     inkscape:pagecheckerboard="1"
     inkscape:deskcolor="#d1d1d1"
     inkscape:zoom="1.9023438"
     inkscape:cx="255.73716"
     inkscape:cy="272.29568"
     inkscape:window-width="2560"
     inkscape:window-height="1403"
     inkscape:window-x="0"
     inkscape:window-y="0"
     inkscape:window-maximized="1"
     inkscape:current-layer="Capa_1" /><rect
     style="fill:#0d21ec;fill-opacity:1;stroke:none;stroke-width:0.228229;stroke-linejoin:round;paint-order:stroke markers fill"
     id="rect1"
     width="24.036646"
     height="24"
     x="-0.018322945"
     y="0"
     inkscape:transform-center-x="-0.62506608"
     inkscape:transform-center-y="0.31662268"
     ry="5.8258572" /><g
     id="g1"
     style="fill:#d2cb11;fill-opacity:1;stroke:none;stroke-width:0.0997263;stroke-dasharray:none;stroke-opacity:1"
     transform="matrix(0.87573103,0,0,0.87573103,1.4912282,1.4907898)"><path
       id="path28_00000073709866318191671830000014127386580848751760_"
       d="m 11.997,8.08 c 0.562,0 1.025,-0.292 1.088,-0.67 L 13.641,1.131 C 13.641,0.51 12.914,0 11.999,0 11.086,0 10.36,0.51 10.36,1.131 L 10.915,7.41 C 10.976,7.788 11.439,8.08 12,8.08 Z"
       style="fill:#d2cb11;fill-opacity:1;stroke:none;stroke-width:0.0997263;stroke-dasharray:none;stroke-opacity:1" /><path
       id="path30_00000124153341203747433310000011324957622965191851_"
       d="M 8.604,10.041 C 8.886,9.555 8.864,9.007 8.567,8.765 L 3.406,5.145 C 2.87,4.835 2.065,5.209 1.608,6 1.15,6.791 1.231,7.675 1.767,7.985 l 5.714,2.661 c 0.358,0.133 0.844,-0.122 1.125,-0.608 z"
       style="fill:#d2cb11;fill-opacity:1;stroke:none;stroke-width:0.0997263;stroke-dasharray:none;stroke-opacity:1" /><path
       id="path32_00000155864076711077106610000005655660110521736632_"
       d="m 15.394,10.038 c 0.281,0.486 0.766,0.741 1.124,0.608 L 22.233,7.985 C 22.771,7.675 22.848,6.791 22.393,6 21.934,5.208 21.128,4.834 20.593,5.145 l -5.161,3.62 c -0.295,0.243 -0.317,0.79 -0.036,1.276 z"
       style="fill:#d2cb11;fill-opacity:1;stroke:none;stroke-width:0.0997263;stroke-dasharray:none;stroke-opacity:1" /><path
       id="path34_00000101820081931970565570000016267403855375259060_"
       d="m 11.997,15.923 c 0.562,0 1.025,0.291 1.088,0.668 l 0.556,6.279 c 0,0.622 -0.727,1.131 -1.642,1.131 -0.913,0 -1.639,-0.509 -1.639,-1.131 l 0.555,-6.279 C 10.976,16.213 11.44,15.923 12,15.923 Z"
       style="fill:#d2cb11;fill-opacity:1;stroke:none;stroke-width:0.0997263;stroke-dasharray:none;stroke-opacity:1" /><path
       id="path36_00000173880211376678550210000014219910852041691539_"
       d="m 15.394,13.962 c 0.281,-0.487 0.766,-0.74 1.124,-0.605 l 5.715,2.658 c 0.538,0.311 0.615,1.195 0.16,1.987 -0.459,0.789 -1.265,1.164 -1.8,0.855 L 15.432,15.24 c -0.295,-0.246 -0.317,-0.792 -0.036,-1.278 z"
       style="fill:#d2cb11;fill-opacity:1;stroke:none;stroke-width:0.0997263;stroke-dasharray:none;stroke-opacity:1" /><path
       id="path38_00000105391591122968324110000005745871395683367067_"
       d="m 8.604,13.961 c 0.282,0.486 0.26,1.033 -0.037,1.278 L 3.406,18.856 C 2.87,19.166 2.065,18.791 1.608,18.001 1.15,17.209 1.231,16.325 1.767,16.014 l 5.714,-2.658 c 0.358,-0.135 0.844,0.118 1.125,0.605 z"
       style="fill:#d2cb11;fill-opacity:1;stroke:none;stroke-width:0.0997263;stroke-dasharray:none;stroke-opacity:1" /></g></svg>
